<svg width="486" height="260" viewBox="0 0 486 260" fill="none" xmlns="http://www.w3.org/2000/svg">
<path opacity="0.8" d="M39.74 213.12H30.1V211.58H39.74V213.12ZM39.74 217.32H30.1V215.78H39.74V217.32ZM58.817 220H57.037V213.46H50.237V220H48.457V205.82H50.237V211.74H57.037V205.82H58.817V220ZM69.4525 210.8C70.4125 211.747 70.8925 213.127 70.8925 214.94C70.8925 216.753 70.4125 218.133 69.4525 219.08C68.6392 219.867 67.6192 220.26 66.3925 220.26C65.1658 220.26 64.1458 219.867 63.3325 219.08C62.3725 218.133 61.8925 216.753 61.8925 214.94C61.8925 213.127 62.3725 211.747 63.3325 210.8C64.1458 210.013 65.1658 209.62 66.3925 209.62C67.6192 209.62 68.6392 210.013 69.4525 210.8ZM68.2125 218.08C68.8392 217.44 69.1525 216.393 69.1525 214.94C69.1525 213.487 68.8392 212.44 68.2125 211.8C67.7325 211.32 67.1258 211.08 66.3925 211.08C65.6592 211.08 65.0525 211.32 64.5725 211.8C63.9458 212.44 63.6325 213.487 63.6325 214.94C63.6325 216.393 63.9458 217.44 64.5725 218.08C65.0525 218.56 65.6592 218.8 66.3925 218.8C67.1258 218.8 67.7325 218.56 68.2125 218.08ZM69.2525 208.02H67.4125V206.18H69.2525V208.02ZM65.7325 208.02H63.8925V206.18H65.7325V208.02ZM79.2848 211.54C79.0182 211.487 78.7048 211.46 78.3448 211.46C77.6248 211.46 76.9848 211.727 76.4248 212.26C75.8115 212.847 75.5048 213.927 75.5048 215.5V220H73.8248V209.88H75.3248L75.4648 211.66C75.7182 211.06 76.1182 210.607 76.6648 210.3C77.2115 209.98 77.8182 209.82 78.4848 209.82C78.7515 209.82 79.0182 209.84 79.2848 209.88V211.54ZM89.6806 220H88.1806L88.0606 218.68C87.7806 219.173 87.354 219.56 86.7806 219.84C86.2206 220.12 85.6406 220.26 85.0406 220.26C83.8406 220.26 82.8873 219.893 82.1806 219.16C81.2073 218.16 80.7206 216.76 80.7206 214.96C80.7206 213.067 81.234 211.627 82.2606 210.64C82.9806 209.96 83.9073 209.62 85.0406 209.62C85.614 209.62 86.1806 209.753 86.7406 210.02C87.314 210.273 87.7273 210.62 87.9806 211.06V205.56H89.6806V220ZM86.9606 218.16C87.7073 217.507 88.0806 216.433 88.0806 214.94C88.0806 213.447 87.7073 212.373 86.9606 211.72C86.4673 211.28 85.9206 211.06 85.3206 211.06C84.294 211.06 83.5606 211.433 83.1206 212.18C82.6806 212.927 82.4606 213.847 82.4606 214.94C82.4606 216.033 82.6806 216.953 83.1206 217.7C83.5606 218.447 84.294 218.82 85.3206 218.82C85.9206 218.82 86.4673 218.6 86.9606 218.16ZM101.875 219.9C101.555 220.06 101.182 220.14 100.755 220.14C100.315 220.14 99.9618 219.993 99.6952 219.7C99.4285 219.407 99.2952 219.04 99.2952 218.6H99.2552C98.9618 219.107 98.5218 219.513 97.9352 219.82C97.3485 220.113 96.7018 220.26 95.9952 220.26C94.9018 220.26 94.0485 219.953 93.4352 219.34C92.8218 218.713 92.5152 217.98 92.5152 217.14C92.5152 216.66 92.6152 216.207 92.8152 215.78C93.0152 215.34 93.3952 214.947 93.9552 214.6C94.5285 214.24 95.2485 214.033 96.1152 213.98L99.1952 213.8V213.06C99.1952 212.353 99.0218 211.84 98.6752 211.52C98.3018 211.173 97.7485 211 97.0152 211C96.1885 211 95.5752 211.2 95.1752 211.6C94.8418 211.933 94.6752 212.34 94.6752 212.82H93.0152C93.0285 211.993 93.3218 211.287 93.8952 210.7C94.5752 209.98 95.6152 209.62 97.0152 209.62C98.8285 209.62 100.015 210.267 100.575 211.56C100.775 212.013 100.875 212.533 100.875 213.12V218.02C100.875 218.473 101.062 218.7 101.435 218.7L101.875 218.64V219.9ZM99.1952 215.72V215.12L96.4752 215.28C95.8752 215.32 95.3552 215.487 94.9152 215.78C94.4752 216.073 94.2552 216.513 94.2552 217.1C94.2552 217.593 94.4152 218.007 94.7352 218.34C95.0685 218.673 95.5752 218.84 96.2552 218.84C97.1085 218.84 97.8018 218.567 98.3352 218.02C98.9085 217.433 99.1952 216.667 99.1952 215.72ZM118.136 214.94C118.136 216.833 117.623 218.273 116.596 219.26C115.876 219.94 114.95 220.28 113.816 220.28C113.243 220.28 112.67 220.153 112.096 219.9C111.536 219.633 111.13 219.28 110.876 218.84V224.34H109.176V209.9H110.676L110.796 211.22C111.076 210.727 111.496 210.34 112.056 210.06C112.63 209.78 113.216 209.64 113.816 209.64C115.016 209.64 115.97 210.007 116.676 210.74C117.65 211.74 118.136 213.14 118.136 214.94ZM115.736 217.72C116.176 216.973 116.396 216.053 116.396 214.96C116.396 213.867 116.176 212.947 115.736 212.2C115.296 211.453 114.563 211.08 113.536 211.08C112.936 211.08 112.39 211.3 111.896 211.74C111.15 212.393 110.776 213.467 110.776 214.96C110.776 216.453 111.15 217.527 111.896 218.18C112.39 218.62 112.936 218.84 113.536 218.84C114.563 218.84 115.296 218.467 115.736 217.72ZM129.231 214.48L129.211 215.5H122.051C122.051 216.54 122.378 217.387 123.031 218.04C123.511 218.52 124.131 218.76 124.891 218.76C125.718 218.76 126.344 218.54 126.771 218.1C127.051 217.82 127.251 217.453 127.371 217H129.031C128.884 218.053 128.364 218.887 127.471 219.5C126.711 220.007 125.851 220.26 124.891 220.26C123.504 220.26 122.384 219.753 121.531 218.74C120.691 217.767 120.271 216.513 120.271 214.98C120.271 213.687 120.531 212.607 121.051 211.74C121.424 211.1 121.938 210.587 122.591 210.2C123.258 209.813 124.018 209.62 124.871 209.62C126.124 209.62 127.151 210.053 127.951 210.92C128.831 211.88 129.258 213.067 129.231 214.48ZM127.491 214.04C127.491 213.227 127.284 212.54 126.871 211.98C126.404 211.367 125.738 211.06 124.871 211.06C124.004 211.06 123.331 211.353 122.851 211.94C122.371 212.527 122.118 213.227 122.091 214.04H127.491ZM137.547 211.54C137.28 211.487 136.967 211.46 136.607 211.46C135.887 211.46 135.247 211.727 134.687 212.26C134.073 212.847 133.767 213.927 133.767 215.5V220H132.087V209.88H133.587L133.727 211.66C133.98 211.06 134.38 210.607 134.927 210.3C135.473 209.98 136.08 209.82 136.747 209.82C137.013 209.82 137.28 209.84 137.547 209.88V211.54ZM147.262 217.06C147.262 217.873 146.996 218.56 146.462 219.12C145.716 219.88 144.616 220.26 143.162 220.26C141.749 220.26 140.656 219.88 139.882 219.12C139.229 218.493 138.902 217.72 138.902 216.8H140.602C140.616 217.453 140.889 217.98 141.422 218.38C141.836 218.687 142.442 218.84 143.242 218.84C144.042 218.84 144.662 218.653 145.102 218.28C145.436 218.013 145.602 217.647 145.602 217.18C145.602 216.367 145.076 215.887 144.022 215.74C143.942 215.727 143.609 215.687 143.022 215.62C142.436 215.54 142.009 215.48 141.742 215.44C140.969 215.32 140.362 215.027 139.922 214.56C139.482 214.093 139.262 213.48 139.262 212.72C139.262 211.96 139.542 211.3 140.102 210.74C140.822 209.993 141.816 209.62 143.082 209.62C144.549 209.62 145.622 210.047 146.302 210.9C146.782 211.487 147.022 212.133 147.022 212.84H145.322C145.296 212.32 145.102 211.9 144.742 211.58C144.342 211.22 143.789 211.04 143.082 211.04C142.616 211.04 142.222 211.107 141.902 211.24C141.222 211.52 140.882 211.973 140.882 212.6C140.882 213.347 141.336 213.787 142.242 213.92C142.362 213.933 142.562 213.96 142.842 214C143.122 214.04 143.416 214.08 143.722 214.12C144.042 214.16 144.362 214.207 144.682 214.26C145.429 214.38 146.042 214.693 146.522 215.2C147.016 215.707 147.262 216.327 147.262 217.06ZM156.972 210.8C157.932 211.747 158.412 213.127 158.412 214.94C158.412 216.753 157.932 218.133 156.972 219.08C156.159 219.867 155.139 220.26 153.912 220.26C152.685 220.26 151.665 219.867 150.852 219.08C149.892 218.133 149.412 216.753 149.412 214.94C149.412 213.127 149.892 211.747 150.852 210.8C151.665 210.013 152.685 209.62 153.912 209.62C155.139 209.62 156.159 210.013 156.972 210.8ZM155.732 218.08C156.359 217.44 156.672 216.393 156.672 214.94C156.672 213.487 156.359 212.44 155.732 211.8C155.252 211.32 154.645 211.08 153.912 211.08C153.179 211.08 152.572 211.32 152.092 211.8C151.465 212.44 151.152 213.487 151.152 214.94C151.152 216.393 151.465 217.44 152.092 218.08C152.572 218.56 153.179 218.8 153.912 218.8C154.645 218.8 155.252 218.56 155.732 218.08ZM169.524 220H167.824V213.58C167.824 211.967 167.084 211.16 165.604 211.16C164.631 211.16 163.898 211.68 163.404 212.72C163.164 213.24 163.044 214.1 163.044 215.3V220H161.344V209.88H162.824L162.964 211.4C163.218 210.853 163.638 210.42 164.224 210.1C164.811 209.78 165.411 209.62 166.024 209.62C167.158 209.62 168.024 209.947 168.624 210.6C169.224 211.24 169.524 212.153 169.524 213.34V220ZM181.204 214.48L181.184 215.5H174.024C174.024 216.54 174.35 217.387 175.004 218.04C175.484 218.52 176.104 218.76 176.864 218.76C177.69 218.76 178.317 218.54 178.744 218.1C179.024 217.82 179.224 217.453 179.344 217H181.004C180.857 218.053 180.337 218.887 179.444 219.5C178.684 220.007 177.824 220.26 176.864 220.26C175.477 220.26 174.357 219.753 173.504 218.74C172.664 217.767 172.244 216.513 172.244 214.98C172.244 213.687 172.504 212.607 173.024 211.74C173.397 211.1 173.91 210.587 174.564 210.2C175.23 209.813 175.99 209.62 176.844 209.62C178.097 209.62 179.124 210.053 179.924 210.92C180.804 211.88 181.23 213.067 181.204 214.48ZM179.464 214.04C179.464 213.227 179.257 212.54 178.844 211.98C178.377 211.367 177.71 211.06 176.844 211.06C175.977 211.06 175.304 211.353 174.824 211.94C174.344 212.527 174.09 213.227 174.064 214.04H179.464ZM189.519 211.54C189.253 211.487 188.939 211.46 188.579 211.46C187.859 211.46 187.219 211.727 186.659 212.26C186.046 212.847 185.739 213.927 185.739 215.5V220H184.059V209.88H185.559L185.699 211.66C185.953 211.06 186.353 210.607 186.899 210.3C187.446 209.98 188.053 209.82 188.719 209.82C188.986 209.82 189.253 209.84 189.519 209.88V211.54ZM200.244 222.1L199.184 222.84C198.118 221.64 197.291 220.207 196.704 218.54C196.118 216.873 195.824 215.213 195.824 213.56C195.824 211.907 196.118 210.247 196.704 208.58C197.291 206.913 198.118 205.48 199.184 204.28L200.244 205.02C198.284 207.607 197.304 210.453 197.304 213.56C197.304 216.667 198.284 219.513 200.244 222.1ZM207.899 220H206.159V208.04L202.859 210.46V208.56L206.259 206.1H207.899V220ZM221.63 209.4C221.857 210.333 221.97 211.547 221.97 213.04C221.97 214.533 221.857 215.747 221.63 216.68C221.417 217.613 220.984 218.413 220.33 219.08C219.544 219.867 218.544 220.26 217.33 220.26C216.117 220.26 215.117 219.867 214.33 219.08C213.677 218.413 213.237 217.613 213.01 216.68C212.797 215.747 212.69 214.533 212.69 213.04C212.69 211.547 212.797 210.333 213.01 209.4C213.237 208.453 213.677 207.647 214.33 206.98C215.104 206.207 216.104 205.82 217.33 205.82C218.557 205.82 219.557 206.207 220.33 206.98C220.984 207.647 221.417 208.453 221.63 209.4ZM220.17 214.52C220.184 214.213 220.19 213.72 220.19 213.04C220.19 212.36 220.184 211.873 220.17 211.58C220.157 211.273 220.117 210.853 220.05 210.32C219.997 209.773 219.884 209.32 219.71 208.96C219.55 208.6 219.33 208.287 219.05 208.02C218.597 207.593 218.024 207.38 217.33 207.38C216.637 207.38 216.064 207.593 215.61 208.02C215.33 208.287 215.104 208.6 214.93 208.96C214.77 209.32 214.657 209.773 214.59 210.32C214.537 210.853 214.504 211.273 214.49 211.58C214.477 211.873 214.47 212.36 214.47 213.04C214.47 213.72 214.477 214.213 214.49 214.52C214.504 214.813 214.537 215.233 214.59 215.78C214.657 216.313 214.77 216.76 214.93 217.12C215.104 217.48 215.33 217.793 215.61 218.06C216.064 218.487 216.637 218.7 217.33 218.7C218.024 218.7 218.597 218.487 219.05 218.06C219.33 217.793 219.55 217.48 219.71 217.12C219.884 216.76 219.997 216.313 220.05 215.78C220.117 215.233 220.157 214.813 220.17 214.52ZM227.042 220H224.682V217.62H227.042V220ZM238.581 220H230.241V218.54L235.861 211.6C236.367 210.96 236.621 210.293 236.621 209.6C236.621 208.893 236.421 208.347 236.021 207.96C235.634 207.56 235.074 207.36 234.341 207.36C233.661 207.36 233.094 207.567 232.641 207.98C232.201 208.38 231.981 209.013 231.981 209.88H230.221C230.221 208.667 230.594 207.687 231.341 206.94C232.101 206.193 233.094 205.82 234.321 205.82C235.827 205.82 236.961 206.353 237.721 207.42C238.147 208.033 238.361 208.753 238.361 209.58C238.361 210.58 237.967 211.567 237.181 212.54L232.461 218.4H238.581V220ZM249.772 220H241.432V218.54L247.052 211.6C247.559 210.96 247.812 210.293 247.812 209.6C247.812 208.893 247.612 208.347 247.212 207.96C246.826 207.56 246.266 207.36 245.532 207.36C244.852 207.36 244.286 207.567 243.832 207.98C243.392 208.38 243.172 209.013 243.172 209.88H241.412C241.412 208.667 241.786 207.687 242.532 206.94C243.292 206.193 244.286 205.82 245.512 205.82C247.019 205.82 248.152 206.353 248.912 207.42C249.339 208.033 249.552 208.753 249.552 209.58C249.552 210.58 249.159 211.567 248.372 212.54L243.652 218.4H249.772V220ZM261.384 215.42C261.384 216.927 260.997 218.107 260.224 218.96C259.437 219.84 258.357 220.28 256.984 220.28C255.664 220.28 254.59 219.88 253.764 219.08C252.977 218.307 252.55 217.28 252.484 216H254.184C254.224 216.84 254.484 217.5 254.964 217.98C255.457 218.473 256.124 218.72 256.964 218.72C257.844 218.72 258.517 218.42 258.984 217.82C259.437 217.247 259.664 216.473 259.664 215.5C259.664 214.5 259.404 213.707 258.884 213.12C258.404 212.6 257.764 212.34 256.964 212.34C255.924 212.34 255.157 212.747 254.664 213.56H252.764L253.144 206.1H260.824V207.64H254.604L254.384 212.08C254.957 211.24 255.93 210.82 257.304 210.82C258.464 210.82 259.41 211.2 260.144 211.96C260.97 212.813 261.384 213.967 261.384 215.42ZM266.215 208.58C266.802 210.247 267.095 211.907 267.095 213.56C267.095 215.213 266.802 216.873 266.215 218.54C265.628 220.207 264.802 221.64 263.735 222.84L262.675 222.1C264.635 219.513 265.615 216.667 265.615 213.56C265.615 210.453 264.635 207.607 262.675 205.02L263.735 204.28C264.802 205.48 265.628 206.913 266.215 208.58Z" fill="black"/>
<path opacity="0.8" d="M39.74 245.12H30.1V243.58H39.74V245.12ZM39.74 249.32H30.1V247.78H39.74V249.32ZM58.397 242.1C58.397 243.46 58.0037 244.533 57.217 245.32C56.4304 246.107 55.2704 246.5 53.737 246.5H50.237V252H48.457V237.82H53.717C55.3304 237.82 56.5304 238.247 57.317 239.1C58.037 239.887 58.397 240.887 58.397 242.1ZM56.557 242.1C56.557 241.22 56.3037 240.56 55.797 240.12C55.2904 239.667 54.5837 239.44 53.677 239.44H50.237V244.88H53.697C55.6037 244.88 56.557 243.953 56.557 242.1ZM69.0161 246.48L68.9961 247.5H61.8361C61.8361 248.54 62.1628 249.387 62.8161 250.04C63.2961 250.52 63.9161 250.76 64.6761 250.76C65.5028 250.76 66.1294 250.54 66.5561 250.1C66.8361 249.82 67.0361 249.453 67.1561 249H68.8161C68.6694 250.053 68.1494 250.887 67.2561 251.5C66.4961 252.007 65.6361 252.26 64.6761 252.26C63.2894 252.26 62.1694 251.753 61.3161 250.74C60.4761 249.767 60.0561 248.513 60.0561 246.98C60.0561 245.687 60.3161 244.607 60.8361 243.74C61.2094 243.1 61.7228 242.587 62.3761 242.2C63.0428 241.813 63.8028 241.62 64.6561 241.62C65.9094 241.62 66.9361 242.053 67.7361 242.92C68.6161 243.88 69.0428 245.067 69.0161 246.48ZM67.2761 246.04C67.2761 245.227 67.0694 244.54 66.6561 243.98C66.1894 243.367 65.5228 243.06 64.6561 243.06C63.7894 243.06 63.1161 243.353 62.6361 243.94C62.1561 244.527 61.9028 245.227 61.8761 246.04H67.2761ZM77.3317 243.54C77.0651 243.487 76.7517 243.46 76.3917 243.46C75.6717 243.46 75.0317 243.727 74.4717 244.26C73.8584 244.847 73.5517 245.927 73.5517 247.5V252H71.8717V241.88H73.3717L73.5117 243.66C73.7651 243.06 74.1651 242.607 74.7117 242.3C75.2584 241.98 75.8651 241.82 76.5317 241.82C76.7984 241.82 77.0651 241.84 77.3317 241.88V243.54ZM87.0475 249.06C87.0475 249.873 86.7808 250.56 86.2475 251.12C85.5008 251.88 84.4008 252.26 82.9475 252.26C81.5342 252.26 80.4408 251.88 79.6675 251.12C79.0142 250.493 78.6875 249.72 78.6875 248.8H80.3875C80.4008 249.453 80.6742 249.98 81.2075 250.38C81.6208 250.687 82.2275 250.84 83.0275 250.84C83.8275 250.84 84.4475 250.653 84.8875 250.28C85.2208 250.013 85.3875 249.647 85.3875 249.18C85.3875 248.367 84.8608 247.887 83.8075 247.74C83.7275 247.727 83.3942 247.687 82.8075 247.62C82.2208 247.54 81.7942 247.48 81.5275 247.44C80.7542 247.32 80.1475 247.027 79.7075 246.56C79.2675 246.093 79.0475 245.48 79.0475 244.72C79.0475 243.96 79.3275 243.3 79.8875 242.74C80.6075 241.993 81.6008 241.62 82.8675 241.62C84.3342 241.62 85.4075 242.047 86.0875 242.9C86.5675 243.487 86.8075 244.133 86.8075 244.84H85.1075C85.0808 244.32 84.8875 243.9 84.5275 243.58C84.1275 243.22 83.5742 243.04 82.8675 243.04C82.4008 243.04 82.0075 243.107 81.6875 243.24C81.0075 243.52 80.6675 243.973 80.6675 244.6C80.6675 245.347 81.1208 245.787 82.0275 245.92C82.1475 245.933 82.3475 245.96 82.6275 246C82.9075 246.04 83.2008 246.08 83.5075 246.12C83.8275 246.16 84.1475 246.207 84.4675 246.26C85.2142 246.38 85.8275 246.693 86.3075 247.2C86.8008 247.707 87.0475 248.327 87.0475 249.06ZM96.7572 242.8C97.7172 243.747 98.1972 245.127 98.1972 246.94C98.1972 248.753 97.7172 250.133 96.7572 251.08C95.9439 251.867 94.9239 252.26 93.6972 252.26C92.4705 252.26 91.4505 251.867 90.6372 251.08C89.6772 250.133 89.1972 248.753 89.1972 246.94C89.1972 245.127 89.6772 243.747 90.6372 242.8C91.4505 242.013 92.4705 241.62 93.6972 241.62C94.9239 241.62 95.9439 242.013 96.7572 242.8ZM95.5172 250.08C96.1439 249.44 96.4572 248.393 96.4572 246.94C96.4572 245.487 96.1439 244.44 95.5172 243.8C95.0372 243.32 94.4305 243.08 93.6972 243.08C92.9639 243.08 92.3572 243.32 91.8772 243.8C91.2505 244.44 90.9372 245.487 90.9372 246.94C90.9372 248.393 91.2505 249.44 91.8772 250.08C92.3572 250.56 92.9639 250.8 93.6972 250.8C94.4305 250.8 95.0372 250.56 95.5172 250.08ZM109.31 252H107.61V245.58C107.61 243.967 106.87 243.16 105.39 243.16C104.416 243.16 103.683 243.68 103.19 244.72C102.95 245.24 102.83 246.1 102.83 247.3V252H101.13V241.88H102.61L102.75 243.4C103.003 242.853 103.423 242.42 104.01 242.1C104.596 241.78 105.196 241.62 105.81 241.62C106.943 241.62 107.81 241.947 108.41 242.6C109.01 243.24 109.31 244.153 109.31 245.34V252ZM120.989 246.48L120.969 247.5H113.809C113.809 248.54 114.135 249.387 114.789 250.04C115.269 250.52 115.889 250.76 116.649 250.76C117.475 250.76 118.102 250.54 118.529 250.1C118.809 249.82 119.009 249.453 119.129 249H120.789C120.642 250.053 120.122 250.887 119.229 251.5C118.469 252.007 117.609 252.26 116.649 252.26C115.262 252.26 114.142 251.753 113.289 250.74C112.449 249.767 112.029 248.513 112.029 246.98C112.029 245.687 112.289 244.607 112.809 243.74C113.182 243.1 113.695 242.587 114.349 242.2C115.015 241.813 115.775 241.62 116.629 241.62C117.882 241.62 118.909 242.053 119.709 242.92C120.589 243.88 121.015 245.067 120.989 246.48ZM119.249 246.04C119.249 245.227 119.042 244.54 118.629 243.98C118.162 243.367 117.495 243.06 116.629 243.06C115.762 243.06 115.089 243.353 114.609 243.94C114.129 244.527 113.875 245.227 113.849 246.04H119.249ZM129.304 243.54C129.038 243.487 128.724 243.46 128.364 243.46C127.644 243.46 127.004 243.727 126.444 244.26C125.831 244.847 125.524 245.927 125.524 247.5V252H123.844V241.88H125.344L125.484 243.66C125.738 243.06 126.138 242.607 126.684 242.3C127.231 241.98 127.838 241.82 128.504 241.82C128.771 241.82 129.038 241.84 129.304 241.88V243.54ZM143.63 249.06C143.63 249.873 143.363 250.56 142.83 251.12C142.083 251.88 140.983 252.26 139.53 252.26C138.116 252.26 137.023 251.88 136.25 251.12C135.596 250.493 135.27 249.72 135.27 248.8H136.97C136.983 249.453 137.256 249.98 137.79 250.38C138.203 250.687 138.81 250.84 139.61 250.84C140.41 250.84 141.03 250.653 141.47 250.28C141.803 250.013 141.97 249.647 141.97 249.18C141.97 248.367 141.443 247.887 140.39 247.74C140.31 247.727 139.976 247.687 139.39 247.62C138.803 247.54 138.376 247.48 138.11 247.44C137.336 247.32 136.73 247.027 136.29 246.56C135.85 246.093 135.63 245.48 135.63 244.72C135.63 243.96 135.91 243.3 136.47 242.74C137.19 241.993 138.183 241.62 139.45 241.62C140.916 241.62 141.99 242.047 142.67 242.9C143.15 243.487 143.39 244.133 143.39 244.84H141.69C141.663 244.32 141.47 243.9 141.11 243.58C140.71 243.22 140.156 243.04 139.45 243.04C138.983 243.04 138.59 243.107 138.27 243.24C137.59 243.52 137.25 243.973 137.25 244.6C137.25 245.347 137.703 245.787 138.61 245.92C138.73 245.933 138.93 245.96 139.21 246C139.49 246.04 139.783 246.08 140.09 246.12C140.41 246.16 140.73 246.207 141.05 246.26C141.796 246.38 142.41 246.693 142.89 247.2C143.383 247.707 143.63 248.327 143.63 249.06ZM153.339 242.8C154.299 243.747 154.779 245.127 154.779 246.94C154.779 248.753 154.299 250.133 153.339 251.08C152.526 251.867 151.506 252.26 150.279 252.26C149.053 252.26 148.033 251.867 147.219 251.08C146.259 250.133 145.779 248.753 145.779 246.94C145.779 245.127 146.259 243.747 147.219 242.8C148.033 242.013 149.053 241.62 150.279 241.62C151.506 241.62 152.526 242.013 153.339 242.8ZM152.099 250.08C152.726 249.44 153.039 248.393 153.039 246.94C153.039 245.487 152.726 244.44 152.099 243.8C151.619 243.32 151.013 243.08 150.279 243.08C149.546 243.08 148.939 243.32 148.459 243.8C147.833 244.44 147.519 245.487 147.519 246.94C147.519 248.393 147.833 249.44 148.459 250.08C148.939 250.56 149.546 250.8 150.279 250.8C151.013 250.8 151.619 250.56 152.099 250.08ZM171.712 252H170.012V245.56C170.012 244.787 169.858 244.193 169.552 243.78C169.245 243.367 168.712 243.16 167.952 243.16C167.352 243.16 166.838 243.387 166.412 243.84C165.838 244.427 165.552 245.353 165.552 246.62V252H163.852V245.56C163.852 244.787 163.698 244.193 163.392 243.78C163.098 243.367 162.572 243.16 161.812 243.16C161.132 243.16 160.558 243.46 160.092 244.06C159.638 244.647 159.412 245.5 159.412 246.62V252H157.712V241.88H159.192L159.352 243.32C159.605 242.773 159.992 242.353 160.512 242.06C161.032 241.767 161.592 241.62 162.192 241.62C163.752 241.62 164.758 242.26 165.212 243.54C165.478 242.927 165.898 242.453 166.472 242.12C167.045 241.787 167.665 241.62 168.332 241.62C169.452 241.62 170.292 241.953 170.852 242.62C171.425 243.273 171.712 244.18 171.712 245.34V252ZM185.12 251.86C184.4 252.047 183.726 252.14 183.1 252.14C182.1 252.14 181.386 251.88 180.96 251.36C180.533 250.84 180.32 250.187 180.32 249.4V243.34H178.36V241.88H180.32V239.3L182.02 238.9V241.88H185.02V243.34H182.02V249.2C182.02 249.68 182.126 250.033 182.34 250.26C182.553 250.473 182.9 250.58 183.38 250.58C183.593 250.58 183.846 250.567 184.14 250.54C184.433 250.5 184.673 250.467 184.86 250.44L185.12 250.4V251.86ZM194.355 242.8C195.315 243.747 195.795 245.127 195.795 246.94C195.795 248.753 195.315 250.133 194.355 251.08C193.542 251.867 192.522 252.26 191.295 252.26C190.068 252.26 189.048 251.867 188.235 251.08C187.275 250.133 186.795 248.753 186.795 246.94C186.795 245.127 187.275 243.747 188.235 242.8C189.048 242.013 190.068 241.62 191.295 241.62C192.522 241.62 193.542 242.013 194.355 242.8ZM193.115 250.08C193.742 249.44 194.055 248.393 194.055 246.94C194.055 245.487 193.742 244.44 193.115 243.8C192.635 243.32 192.028 243.08 191.295 243.08C190.562 243.08 189.955 243.32 189.475 243.8C188.848 244.44 188.535 245.487 188.535 246.94C188.535 248.393 188.848 249.44 189.475 250.08C189.955 250.56 190.562 250.8 191.295 250.8C192.028 250.8 192.635 250.56 193.115 250.08ZM206.567 251.52C207.101 252.053 207.367 252.713 207.367 253.5C207.367 254.287 207.081 254.967 206.507 255.54C205.707 256.327 204.347 256.72 202.427 256.72C200.654 256.72 199.374 256.327 198.587 255.54C198.107 255.06 197.867 254.46 197.867 253.74C197.867 252.727 198.347 251.98 199.307 251.5C198.961 251.367 198.674 251.147 198.447 250.84C198.234 250.533 198.127 250.187 198.127 249.8C198.127 248.92 198.574 248.267 199.467 247.84C198.694 247.147 198.307 246.273 198.307 245.22C198.307 244.247 198.627 243.427 199.267 242.76C200.001 242 201.001 241.62 202.267 241.62C203.161 241.62 203.934 241.82 204.587 242.22C204.761 241.767 205.027 241.42 205.387 241.18C205.761 240.927 206.187 240.8 206.667 240.8C206.787 240.8 206.954 240.813 207.167 240.84V242.22C207.101 242.207 206.974 242.2 206.787 242.2C206.454 242.2 206.174 242.287 205.947 242.46C205.734 242.62 205.601 242.84 205.547 243.12C205.987 243.68 206.207 244.38 206.207 245.22C206.207 246.153 205.901 246.96 205.287 247.64C204.554 248.44 203.547 248.84 202.267 248.84C201.681 248.84 201.114 248.747 200.567 248.56C200.034 248.733 199.747 249.033 199.707 249.46C199.694 249.673 199.727 249.853 199.807 250C199.901 250.133 200.034 250.233 200.207 250.3C200.381 250.353 200.541 250.393 200.687 250.42C200.847 250.447 201.027 250.46 201.227 250.46H203.227C204.761 250.46 205.874 250.813 206.567 251.52ZM203.907 246.84C204.334 246.413 204.547 245.873 204.547 245.22C204.547 244.567 204.341 244.033 203.927 243.62C203.514 243.207 202.954 243 202.247 243C201.567 243 201.014 243.213 200.587 243.64C200.161 244.053 199.947 244.58 199.947 245.22C199.947 245.873 200.154 246.413 200.567 246.84C200.981 247.267 201.541 247.48 202.247 247.48C202.927 247.48 203.481 247.267 203.907 246.84ZM205.707 253.5C205.707 253.247 205.667 253.02 205.587 252.82C205.507 252.633 205.381 252.48 205.207 252.36C205.034 252.253 204.874 252.16 204.727 252.08C204.581 252.013 204.361 251.973 204.067 251.96C203.787 251.933 203.574 251.92 203.427 251.92C203.294 251.907 203.074 251.9 202.767 251.9C202.661 251.9 202.581 251.9 202.527 251.9H200.687C200.327 252.02 200.021 252.22 199.767 252.5C199.527 252.793 199.407 253.127 199.407 253.5C199.407 253.927 199.547 254.28 199.827 254.56C200.294 255.027 201.194 255.26 202.527 255.26C203.887 255.26 204.807 255.02 205.287 254.54C205.567 254.26 205.707 253.913 205.707 253.5ZM223.097 246.94C223.097 248.833 222.584 250.273 221.557 251.26C220.837 251.94 219.911 252.28 218.777 252.28C218.204 252.28 217.631 252.153 217.057 251.9C216.497 251.633 216.091 251.28 215.837 250.84V256.34H214.137V241.9H215.637L215.757 243.22C216.037 242.727 216.457 242.34 217.017 242.06C217.591 241.78 218.177 241.64 218.777 241.64C219.977 241.64 220.931 242.007 221.637 242.74C222.611 243.74 223.097 245.14 223.097 246.94ZM220.697 249.72C221.137 248.973 221.357 248.053 221.357 246.96C221.357 245.867 221.137 244.947 220.697 244.2C220.257 243.453 219.524 243.08 218.497 243.08C217.897 243.08 217.351 243.3 216.857 243.74C216.111 244.393 215.737 245.467 215.737 246.96C215.737 248.453 216.111 249.527 216.857 250.18C217.351 250.62 217.897 250.84 218.497 250.84C219.524 250.84 220.257 250.467 220.697 249.72ZM234.512 251.9C234.192 252.06 233.819 252.14 233.392 252.14C232.952 252.14 232.599 251.993 232.332 251.7C232.065 251.407 231.932 251.04 231.932 250.6H231.892C231.599 251.107 231.159 251.513 230.572 251.82C229.985 252.113 229.339 252.26 228.632 252.26C227.539 252.26 226.685 251.953 226.072 251.34C225.459 250.713 225.152 249.98 225.152 249.14C225.152 248.66 225.252 248.207 225.452 247.78C225.652 247.34 226.032 246.947 226.592 246.6C227.165 246.24 227.885 246.033 228.752 245.98L231.832 245.8V245.06C231.832 244.353 231.659 243.84 231.312 243.52C230.939 243.173 230.385 243 229.652 243C228.825 243 228.212 243.2 227.812 243.6C227.479 243.933 227.312 244.34 227.312 244.82H225.652C225.665 243.993 225.959 243.287 226.532 242.7C227.212 241.98 228.252 241.62 229.652 241.62C231.465 241.62 232.652 242.267 233.212 243.56C233.412 244.013 233.512 244.533 233.512 245.12V250.02C233.512 250.473 233.699 250.7 234.072 250.7L234.512 250.64V251.9ZM231.832 247.72V247.12L229.112 247.28C228.512 247.32 227.992 247.487 227.552 247.78C227.112 248.073 226.892 248.513 226.892 249.1C226.892 249.593 227.052 250.007 227.372 250.34C227.705 250.673 228.212 250.84 228.892 250.84C229.745 250.84 230.439 250.567 230.972 250.02C231.545 249.433 231.832 248.667 231.832 247.72ZM231.372 237.08C231.772 237.507 231.972 238.007 231.972 238.58C231.972 239.153 231.772 239.653 231.372 240.08C230.972 240.507 230.439 240.72 229.772 240.72C229.105 240.72 228.572 240.507 228.172 240.08C227.772 239.653 227.572 239.153 227.572 238.58C227.572 238.007 227.772 237.507 228.172 237.08C228.572 236.653 229.105 236.44 229.772 236.44C230.439 236.44 230.972 236.653 231.372 237.08ZM230.552 239.36C230.752 239.147 230.852 238.887 230.852 238.58C230.852 238.273 230.752 238.013 230.552 237.8C230.352 237.573 230.092 237.46 229.772 237.46C229.452 237.46 229.185 237.573 228.972 237.8C228.772 238.013 228.672 238.273 228.672 238.58C228.672 238.887 228.772 239.147 228.972 239.36C229.185 239.573 229.452 239.68 229.772 239.68C230.092 239.68 230.352 239.573 230.552 239.36ZM249.313 249.06C249.313 249.873 249.046 250.56 248.513 251.12C247.766 251.88 246.666 252.26 245.213 252.26C243.8 252.26 242.706 251.88 241.933 251.12C241.28 250.493 240.953 249.72 240.953 248.8H242.653C242.666 249.453 242.94 249.98 243.473 250.38C243.886 250.687 244.493 250.84 245.293 250.84C246.093 250.84 246.713 250.653 247.153 250.28C247.486 250.013 247.653 249.647 247.653 249.18C247.653 248.367 247.126 247.887 246.073 247.74C245.993 247.727 245.66 247.687 245.073 247.62C244.486 247.54 244.06 247.48 243.793 247.44C243.02 247.32 242.413 247.027 241.973 246.56C241.533 246.093 241.313 245.48 241.313 244.72C241.313 243.96 241.593 243.3 242.153 242.74C242.873 241.993 243.866 241.62 245.133 241.62C246.6 241.62 247.673 242.047 248.353 242.9C248.833 243.487 249.073 244.133 249.073 244.84H247.373C247.346 244.32 247.153 243.9 246.793 243.58C246.393 243.22 245.84 243.04 245.133 243.04C244.666 243.04 244.273 243.107 243.953 243.24C243.273 243.52 242.933 243.973 242.933 244.6C242.933 245.347 243.386 245.787 244.293 245.92C244.413 245.933 244.613 245.96 244.893 246C245.173 246.04 245.466 246.08 245.773 246.12C246.093 246.16 246.413 246.207 246.733 246.26C247.48 246.38 248.093 246.693 248.573 247.2C249.066 247.707 249.313 248.327 249.313 249.06ZM254.103 239.56H252.123V237.56H254.103V239.56ZM253.983 252H252.243V241.88H253.983V252ZM265.552 251.52C266.085 252.053 266.352 252.713 266.352 253.5C266.352 254.287 266.065 254.967 265.492 255.54C264.692 256.327 263.332 256.72 261.412 256.72C259.638 256.72 258.358 256.327 257.572 255.54C257.092 255.06 256.852 254.46 256.852 253.74C256.852 252.727 257.332 251.98 258.292 251.5C257.945 251.367 257.658 251.147 257.432 250.84C257.218 250.533 257.112 250.187 257.112 249.8C257.112 248.92 257.558 248.267 258.452 247.84C257.678 247.147 257.292 246.273 257.292 245.22C257.292 244.247 257.612 243.427 258.252 242.76C258.985 242 259.985 241.62 261.252 241.62C262.145 241.62 262.918 241.82 263.572 242.22C263.745 241.767 264.012 241.42 264.372 241.18C264.745 240.927 265.172 240.8 265.652 240.8C265.772 240.8 265.938 240.813 266.152 240.84V242.22C266.085 242.207 265.958 242.2 265.772 242.2C265.438 242.2 265.158 242.287 264.932 242.46C264.718 242.62 264.585 242.84 264.532 243.12C264.972 243.68 265.192 244.38 265.192 245.22C265.192 246.153 264.885 246.96 264.272 247.64C263.538 248.44 262.532 248.84 261.252 248.84C260.665 248.84 260.098 248.747 259.552 248.56C259.018 248.733 258.732 249.033 258.692 249.46C258.678 249.673 258.712 249.853 258.792 250C258.885 250.133 259.018 250.233 259.192 250.3C259.365 250.353 259.525 250.393 259.672 250.42C259.832 250.447 260.012 250.46 260.212 250.46H262.212C263.745 250.46 264.858 250.813 265.552 251.52ZM262.892 246.84C263.318 246.413 263.532 245.873 263.532 245.22C263.532 244.567 263.325 244.033 262.912 243.62C262.498 243.207 261.938 243 261.232 243C260.552 243 259.998 243.213 259.572 243.64C259.145 244.053 258.932 244.58 258.932 245.22C258.932 245.873 259.138 246.413 259.552 246.84C259.965 247.267 260.525 247.48 261.232 247.48C261.912 247.48 262.465 247.267 262.892 246.84ZM264.692 253.5C264.692 253.247 264.652 253.02 264.572 252.82C264.492 252.633 264.365 252.48 264.192 252.36C264.018 252.253 263.858 252.16 263.712 252.08C263.565 252.013 263.345 251.973 263.052 251.96C262.772 251.933 262.558 251.92 262.412 251.92C262.278 251.907 262.058 251.9 261.752 251.9C261.645 251.9 261.565 251.9 261.512 251.9H259.672C259.312 252.02 259.005 252.22 258.752 252.5C258.512 252.793 258.392 253.127 258.392 253.5C258.392 253.927 258.532 254.28 258.812 254.56C259.278 255.027 260.178 255.26 261.512 255.26C262.872 255.26 263.792 255.02 264.272 254.54C264.552 254.26 264.692 253.913 264.692 253.5ZM287.122 252H285.422V245.56C285.422 244.787 285.268 244.193 284.962 243.78C284.655 243.367 284.122 243.16 283.362 243.16C282.762 243.16 282.248 243.387 281.822 243.84C281.248 244.427 280.962 245.353 280.962 246.62V252H279.262V245.56C279.262 244.787 279.108 244.193 278.802 243.78C278.508 243.367 277.982 243.16 277.222 243.16C276.542 243.16 275.968 243.46 275.502 244.06C275.048 244.647 274.822 245.5 274.822 246.62V252H273.122V241.88H274.602L274.762 243.32C275.015 242.773 275.402 242.353 275.922 242.06C276.442 241.767 277.002 241.62 277.602 241.62C279.162 241.62 280.168 242.26 280.622 243.54C280.888 242.927 281.308 242.453 281.882 242.12C282.455 241.787 283.075 241.62 283.742 241.62C284.862 241.62 285.702 241.953 286.262 242.62C286.835 243.273 287.122 244.18 287.122 245.34V252ZM297.46 242.8C298.42 243.747 298.9 245.127 298.9 246.94C298.9 248.753 298.42 250.133 297.46 251.08C296.647 251.867 295.627 252.26 294.4 252.26C293.174 252.26 292.154 251.867 291.34 251.08C290.38 250.133 289.9 248.753 289.9 246.94C289.9 245.127 290.38 243.747 291.34 242.8C292.154 242.013 293.174 241.62 294.4 241.62C295.627 241.62 296.647 242.013 297.46 242.8ZM296.22 250.08C296.847 249.44 297.16 248.393 297.16 246.94C297.16 245.487 296.847 244.44 296.22 243.8C295.74 243.32 295.134 243.08 294.4 243.08C293.667 243.08 293.06 243.32 292.58 243.8C291.954 244.44 291.64 245.487 291.64 246.94C291.64 248.393 291.954 249.44 292.58 250.08C293.06 250.56 293.667 250.8 294.4 250.8C295.134 250.8 295.74 250.56 296.22 250.08ZM307.293 243.54C307.026 243.487 306.713 243.46 306.353 243.46C305.633 243.46 304.993 243.727 304.433 244.26C303.819 244.847 303.513 245.927 303.513 247.5V252H301.833V241.88H303.333L303.473 243.66C303.726 243.06 304.126 242.607 304.673 242.3C305.219 241.98 305.826 241.82 306.493 241.82C306.759 241.82 307.026 241.84 307.293 241.88V243.54ZM317.688 252H316.188L316.068 250.68C315.788 251.173 315.362 251.56 314.788 251.84C314.228 252.12 313.648 252.26 313.048 252.26C311.848 252.26 310.895 251.893 310.188 251.16C309.215 250.16 308.728 248.76 308.728 246.96C308.728 245.067 309.242 243.627 310.268 242.64C310.988 241.96 311.915 241.62 313.048 241.62C313.622 241.62 314.188 241.753 314.748 242.02C315.322 242.273 315.735 242.62 315.988 243.06V237.56H317.688V252ZM314.968 250.16C315.715 249.507 316.088 248.433 316.088 246.94C316.088 245.447 315.715 244.373 314.968 243.72C314.475 243.28 313.928 243.06 313.328 243.06C312.302 243.06 311.568 243.433 311.128 244.18C310.688 244.927 310.468 245.847 310.468 246.94C310.468 248.033 310.688 248.953 311.128 249.7C311.568 250.447 312.302 250.82 313.328 250.82C313.928 250.82 314.475 250.6 314.968 250.16ZM329.563 246.48L329.543 247.5H322.383C322.383 248.54 322.71 249.387 323.363 250.04C323.843 250.52 324.463 250.76 325.223 250.76C326.05 250.76 326.676 250.54 327.103 250.1C327.383 249.82 327.583 249.453 327.703 249H329.363C329.216 250.053 328.696 250.887 327.803 251.5C327.043 252.007 326.183 252.26 325.223 252.26C323.836 252.26 322.716 251.753 321.863 250.74C321.023 249.767 320.603 248.513 320.603 246.98C320.603 245.687 320.863 244.607 321.383 243.74C321.756 243.1 322.27 242.587 322.923 242.2C323.59 241.813 324.35 241.62 325.203 241.62C326.456 241.62 327.483 242.053 328.283 242.92C329.163 243.88 329.59 245.067 329.563 246.48ZM327.823 246.04C327.823 245.227 327.616 244.54 327.203 243.98C326.736 243.367 326.07 243.06 325.203 243.06C324.336 243.06 323.663 243.353 323.183 243.94C322.703 244.527 322.45 245.227 322.423 246.04H327.823ZM337.659 251.86C336.939 252.047 336.265 252.14 335.639 252.14C334.639 252.14 333.925 251.88 333.499 251.36C333.072 250.84 332.859 250.187 332.859 249.4V243.34H330.899V241.88H332.859V239.3L334.559 238.9V241.88H337.559V243.34H334.559V249.2C334.559 249.68 334.665 250.033 334.879 250.26C335.092 250.473 335.439 250.58 335.919 250.58C336.132 250.58 336.385 250.567 336.679 250.54C336.972 250.5 337.212 250.467 337.399 250.44L337.659 250.4V251.86ZM348.623 254.1L347.563 254.84C346.497 253.64 345.67 252.207 345.083 250.54C344.497 248.873 344.203 247.213 344.203 245.56C344.203 243.907 344.497 242.247 345.083 240.58C345.67 238.913 346.497 237.48 347.563 236.28L348.623 237.02C346.663 239.607 345.683 242.453 345.683 245.56C345.683 248.667 346.663 251.513 348.623 254.1ZM356.278 252H354.538V240.04L351.238 242.46V240.56L354.638 238.1H356.278V252ZM369.989 248.2C369.989 249.32 369.636 250.253 368.929 251C368.129 251.84 367.009 252.26 365.569 252.26C364.289 252.26 363.229 251.84 362.389 251C361.616 250.227 361.223 249.233 361.209 248.02H362.949C362.989 248.847 363.229 249.487 363.669 249.94C364.149 250.46 364.783 250.72 365.569 250.72C366.436 250.72 367.109 250.453 367.589 249.92C368.029 249.44 368.249 248.853 368.249 248.16C368.249 247.333 367.989 246.7 367.469 246.26C366.949 245.807 366.256 245.58 365.389 245.58H364.549V244H365.389C366.189 244 366.816 243.793 367.269 243.38C367.723 242.967 367.949 242.393 367.949 241.66C367.949 241.007 367.729 240.467 367.289 240.04C366.836 239.587 366.269 239.36 365.589 239.36C364.923 239.36 364.356 239.547 363.889 239.92C363.356 240.36 363.076 241.013 363.049 241.88H361.309C361.323 240.56 361.769 239.54 362.649 238.82C363.463 238.153 364.456 237.82 365.629 237.82C366.816 237.82 367.803 238.193 368.589 238.94C369.336 239.62 369.709 240.527 369.709 241.66C369.709 242.313 369.509 242.94 369.109 243.54C368.723 244.14 368.243 244.56 367.669 244.8C368.389 245.04 368.956 245.48 369.369 246.12C369.783 246.76 369.989 247.453 369.989 248.2ZM381.181 248.2C381.181 249.32 380.827 250.253 380.121 251C379.321 251.84 378.201 252.26 376.761 252.26C375.481 252.26 374.421 251.84 373.581 251C372.807 250.227 372.414 249.233 372.401 248.02H374.141C374.181 248.847 374.421 249.487 374.861 249.94C375.341 250.46 375.974 250.72 376.761 250.72C377.627 250.72 378.301 250.453 378.781 249.92C379.221 249.44 379.441 248.853 379.441 248.16C379.441 247.333 379.181 246.7 378.661 246.26C378.141 245.807 377.447 245.58 376.581 245.58H375.741V244H376.581C377.381 244 378.007 243.793 378.461 243.38C378.914 242.967 379.141 242.393 379.141 241.66C379.141 241.007 378.921 240.467 378.481 240.04C378.027 239.587 377.461 239.36 376.781 239.36C376.114 239.36 375.547 239.547 375.081 239.92C374.547 240.36 374.267 241.013 374.241 241.88H372.501C372.514 240.56 372.961 239.54 373.841 238.82C374.654 238.153 375.647 237.82 376.821 237.82C378.007 237.82 378.994 238.193 379.781 238.94C380.527 239.62 380.901 240.527 380.901 241.66C380.901 242.313 380.701 242.94 380.301 243.54C379.914 244.14 379.434 244.56 378.861 244.8C379.581 245.04 380.147 245.48 380.561 246.12C380.974 246.76 381.181 247.453 381.181 248.2ZM386.332 240.58C386.919 242.247 387.212 243.907 387.212 245.56C387.212 247.213 386.919 248.873 386.332 250.54C385.746 252.207 384.919 253.64 383.852 254.84L382.792 254.1C384.752 251.513 385.732 248.667 385.732 245.56C385.732 242.453 384.752 239.607 382.792 237.02L383.852 236.28C384.919 237.48 385.746 238.913 386.332 240.58Z" fill="black"/>
<path d="M20 236H1V256H20V236Z" fill="#F77474"/>
<path d="M20 205H1V224H20V205Z" fill="#A3A3A3"/>
<path d="M19 0H0V19H19V0Z" fill="#F77474"/>
<path d="M50 0H31V19H50V0Z" fill="#A3A3A3"/>
<path d="M81 0H61V19H81V0Z" fill="#A3A3A3"/>
<path d="M113 0H93V19H113V0Z" fill="#A3A3A3"/>
<path d="M144 0H126V19H144V0Z" fill="#A3A3A3"/>
<path d="M144 31H126V50H144V31Z" fill="#A3A3A3"/>
<path d="M113 31H93V50H113V31Z" fill="#A3A3A3"/>
<path d="M81 31H61V50H81V31Z" fill="#A3A3A3"/>
<path d="M50 31H31V50H50V31Z" fill="#A3A3A3"/>
<path d="M19 31H0V50H19V31Z" fill="#A3A3A3"/>
<path d="M19 61H0V82H19V61Z" fill="#A3A3A3"/>
<path d="M50 61H31V82H50V61Z" fill="#A3A3A3"/>
<path d="M81 61H61V82H81V61Z" fill="#A3A3A3"/>
<path d="M113 61H93V82H113V61Z" fill="#A3A3A3"/>
<path d="M144 61H126V82H144V61Z" fill="#A3A3A3"/>
<path d="M144 93H126V113H144V93Z" fill="#A3A3A3"/>
<path d="M113 93H93V113H113V93Z" fill="#A3A3A3"/>
<path d="M81 93H61V113H81V93Z" fill="#A3A3A3"/>
<path d="M50 93H31V113H50V93Z" fill="#A3A3A3"/>
<path d="M19 93H0V113H19V93Z" fill="#A3A3A3"/>
<path d="M19 126H0V144H19V126Z" fill="#A3A3A3"/>
<path d="M50 126H31V144H50V126Z" fill="#A3A3A3"/>
<path d="M81 126H61V144H81V126Z" fill="#A3A3A3"/>
<path d="M113 126H93V144H113V126Z" fill="#A3A3A3"/>
<path d="M144 126H126V144H144V126Z" fill="#A3A3A3"/>
<path d="M144 157H126V176H144V157Z" fill="#A3A3A3"/>
<path d="M113 157H93V176H113V157Z" fill="#A3A3A3"/>
<path d="M81 157H61V176H81V157Z" fill="#A3A3A3"/>
<path d="M50 157H31V176H50V157Z" fill="#A3A3A3"/>
<path d="M19 157H0V176H19V157Z" fill="#A3A3A3"/>
<path d="M19 126H0V144H19V126Z" fill="#A3A3A3"/>
<path d="M50 126H31V144H50V126Z" fill="#A3A3A3"/>
<path d="M81 126H61V144H81V126Z" fill="#A3A3A3"/>
<path d="M113 126H93V144H113V126Z" fill="#A3A3A3"/>
<path d="M144 126H126V144H144V126Z" fill="#A3A3A3"/>
<path d="M144 157H126V176H144V157Z" fill="#A3A3A3"/>
<path d="M113 157H93V176H113V157Z" fill="#A3A3A3"/>
<path d="M81 157H61V176H81V157Z" fill="#A3A3A3"/>
<path d="M50 157H31V176H50V157Z" fill="#A3A3A3"/>
<path d="M19 157H0V176H19V157Z" fill="#A3A3A3"/>
<path d="M175 0H156V19H175V0Z" fill="#A3A3A3"/>
<path d="M206 0H187V19H206V0Z" fill="#A3A3A3"/>
<path d="M237 0H218V19H237V0Z" fill="#A3A3A3"/>
<path d="M267 0H249V19H267V0Z" fill="#A3A3A3"/>
<path d="M300 0H280V19H300V0Z" fill="#A3A3A3"/>
<path d="M300 31H280V50H300V31Z" fill="#A3A3A3"/>
<path d="M267 31H249V50H267V31Z" fill="#A3A3A3"/>
<path d="M237 31H218V50H237V31Z" fill="#A3A3A3"/>
<path d="M206 31H187V50H206V31Z" fill="#A3A3A3"/>
<path d="M175 31H156V50H175V31Z" fill="#A3A3A3"/>
<path d="M175 61H156V82H175V61Z" fill="#A3A3A3"/>
<path d="M206 61H187V82H206V61Z" fill="#A3A3A3"/>
<path d="M237 61H218V82H237V61Z" fill="#A3A3A3"/>
<path d="M267 61H249V82H267V61Z" fill="#A3A3A3"/>
<path d="M300 61H280V82H300V61Z" fill="#A3A3A3"/>
<path d="M300 93H280V113H300V93Z" fill="#A3A3A3"/>
<path d="M267 93H249V113H267V93Z" fill="#A3A3A3"/>
<path d="M237 93H218V113H237V93Z" fill="#A3A3A3"/>
<path d="M206 93H187V113H206V93Z" fill="#A3A3A3"/>
<path d="M175 93H156V113H175V93Z" fill="#A3A3A3"/>
<path d="M175 126H156V144H175V126Z" fill="#A3A3A3"/>
<path d="M206 126H187V144H206V126Z" fill="#A3A3A3"/>
<path d="M237 126H218V144H237V126Z" fill="#A3A3A3"/>
<path d="M267 126H249V144H267V126Z" fill="#A3A3A3"/>
<path d="M300 126H280V144H300V126Z" fill="#A3A3A3"/>
<path d="M300 157H280V176H300V157Z" fill="#A3A3A3"/>
<path d="M267 157H249V176H267V157Z" fill="#A3A3A3"/>
<path d="M237 157H218V176H237V157Z" fill="#A3A3A3"/>
<path d="M206 157H187V176H206V157Z" fill="#A3A3A3"/>
<path d="M175 157H156V176H175V157Z" fill="#A3A3A3"/>
<path d="M175 126H156V144H175V126Z" fill="#A3A3A3"/>
<path d="M206 126H187V144H206V126Z" fill="#A3A3A3"/>
<path d="M237 126H218V144H237V126Z" fill="#A3A3A3"/>
<path d="M267 126H249V144H267V126Z" fill="#A3A3A3"/>
<path d="M300 126H280V144H300V126Z" fill="#A3A3A3"/>
<path d="M300 157H280V176H300V157Z" fill="#A3A3A3"/>
<path d="M267 157H249V176H267V157Z" fill="#A3A3A3"/>
<path d="M237 157H218V176H237V157Z" fill="#A3A3A3"/>
<path d="M206 157H187V176H206V157Z" fill="#A3A3A3"/>
<path d="M175 157H156V176H175V157Z" fill="#A3A3A3"/>
<path d="M331 0H311V19H331V0Z" fill="#A3A3A3"/>
<path d="M361 0H343V19H361V0Z" fill="#A3A3A3"/>
<path d="M393 0H374V19H393V0Z" fill="#A3A3A3"/>
<path d="M425 0H406V19H425V0Z" fill="#A3A3A3"/>
<path d="M455 0H436V19H455V0Z" fill="#A3A3A3"/>
<path d="M455 31H436V50H455V31Z" fill="#A3A3A3"/>
<path d="M425 31H406V50H425V31Z" fill="#A3A3A3"/>
<path d="M393 31H374V50H393V31Z" fill="#A3A3A3"/>
<path d="M361 31H343V50H361V31Z" fill="#A3A3A3"/>
<path d="M331 31H311V50H331V31Z" fill="#A3A3A3"/>
<path d="M331 61H311V82H331V61Z" fill="#A3A3A3"/>
<path d="M361 61H343V82H361V61Z" fill="#A3A3A3"/>
<path d="M393 61H374V82H393V61Z" fill="#A3A3A3"/>
<path d="M425 61H406V82H425V61Z" fill="#A3A3A3"/>
<path d="M455 61H436V82H455V61Z" fill="#A3A3A3"/>
<path d="M455 93H436V113H455V93Z" fill="#A3A3A3"/>
<path d="M425 93H406V113H425V93Z" fill="#A3A3A3"/>
<path d="M393 93H374V113H393V93Z" fill="#A3A3A3"/>
<path d="M361 93H343V113H361V93Z" fill="#A3A3A3"/>
<path d="M331 93H311V113H331V93Z" fill="#A3A3A3"/>
<path d="M331 126H311V144H331V126Z" fill="#A3A3A3"/>
<path d="M361 126H343V144H361V126Z" fill="#A3A3A3"/>
<path d="M393 126H374V144H393V126Z" fill="#A3A3A3"/>
<path d="M425 126H406V144H425V126Z" fill="#A3A3A3"/>
<path d="M455 126H436V144H455V126Z" fill="#A3A3A3"/>
<path d="M455 157H436V176H455V157Z" fill="#A3A3A3"/>
<path d="M425 157H406V176H425V157Z" fill="#A3A3A3"/>
<path d="M393 157H374V176H393V157Z" fill="#A3A3A3"/>
<path d="M361 157H343V176H361V157Z" fill="#A3A3A3"/>
<path d="M331 157H311V176H331V157Z" fill="#A3A3A3"/>
<path d="M331 126H311V144H331V126Z" fill="#A3A3A3"/>
<path d="M361 126H343V144H361V126Z" fill="#A3A3A3"/>
<path d="M393 126H374V144H393V126Z" fill="#A3A3A3"/>
<path d="M425 126H406V144H425V126Z" fill="#A3A3A3"/>
<path d="M455 126H436V144H455V126Z" fill="#A3A3A3"/>
<path d="M455 157H436V176H455V157Z" fill="#A3A3A3"/>
<path d="M486 0H467V19H486V0Z" fill="#A3A3A3"/>
<path d="M486 31H467V50H486V31Z" fill="#A3A3A3"/>
<path d="M486 61H467V82H486V61Z" fill="#A3A3A3"/>
<path d="M486 93H467V113H486V93Z" fill="#A3A3A3"/>
<path d="M486 126H467V144H486V126Z" fill="#A3A3A3"/>
<path d="M486 157H467V176H486V157Z" fill="#A3A3A3"/>
<path d="M486 126H467V144H486V126Z" fill="#A3A3A3"/>
<path d="M486 157H467V176H486V157Z" fill="#A3A3A3"/>
<path d="M425 157H406V176H425V157Z" fill="#A3A3A3"/>
<path d="M393 157H374V176H393V157Z" fill="#A3A3A3"/>
<path d="M361 157H343V176H361V157Z" fill="#A3A3A3"/>
<path d="M331 157H311V176H331V157Z" fill="#A3A3A3"/>
</svg>
